<?xml version="1.0" encoding="utf-8"?>
<svg id="Layer_1" data-name="Layer 1" viewBox="0 0 122.61 122.88" xmlns="http://www.w3.org/2000/svg">
  <defs/>
  <title>update</title>
  <path d="M 103.935 61.619 C 104.085 58.145 107.939 56.138 110.872 58.004 C 112.116 58.796 112.895 60.146 112.959 61.619 C 112.955 101.377 69.911 126.222 35.482 106.338 C 31.428 103.996 27.711 101.115 24.433 97.773 L 24.433 108.177 C 24.433 111.654 20.67 113.827 17.66 112.088 C 16.262 111.282 15.402 109.791 15.402 108.177 L 15.402 84.991 C 15.425 82.513 17.44 80.517 19.917 80.517 L 43.356 80.517 C 46.83 80.367 49.163 84.033 47.556 87.116 C 46.747 88.671 45.109 89.617 43.356 89.541 L 29.034 89.541 C 50.504 114.362 90.792 106.634 101.553 75.63 C 103.113 71.135 103.91 66.41 103.91 61.652 L 103.935 61.619 Z M 99.471 14.26 C 99.32 10.787 102.986 8.453 106.069 10.06 C 107.624 10.87 108.569 12.508 108.494 14.26 L 108.494 37.665 C 108.489 40.14 106.495 42.15 104.019 42.173 L 80.799 42.173 C 77.327 42.323 74.993 38.657 76.599 35.574 C 77.41 34.019 79.047 33.074 80.799 33.15 L 93.067 33.15 C 71.17 8.705 31.021 17.13 20.799 48.316 C 19.392 52.61 18.676 57.101 18.679 61.619 C 18.829 65.092 15.163 67.426 12.08 65.819 C 10.525 65.008 9.579 63.371 9.655 61.619 C 9.676 22.251 51.966 -2.626 86.385 16.484 C 91.273 19.205 95.692 22.695 99.471 26.822 L 99.471 14.26 Z" style="fill: rgb(255, 255, 255);"/>
</svg>